<svg xmlns="http://www.w3.org/2000/svg" viewBox="0 0 1920 1080" role="img" aria-labelledby="title desc">
  <title>Gradient Linux Canvas wallpaper</title>
  <desc>Warm geometric wallpaper based on the concave-web palette.</desc>
  <defs>
    <linearGradient id="bg" x1="0%" y1="0%" x2="100%" y2="100%">
      <stop offset="0%" stop-color="#fcf7ef"/>
      <stop offset="45%" stop-color="#f8ebfb"/>
      <stop offset="100%" stop-color="#fff4d1"/>
    </linearGradient>
    <linearGradient id="meshA" x1="0%" y1="0%" x2="100%" y2="0%">
      <stop offset="0%" stop-color="#5B00A0" stop-opacity="0.88"/>
      <stop offset="100%" stop-color="#D63CA0" stop-opacity="0.82"/>
    </linearGradient>
    <linearGradient id="meshB" x1="0%" y1="100%" x2="100%" y2="0%">
      <stop offset="0%" stop-color="#F5C842" stop-opacity="0.82"/>
      <stop offset="100%" stop-color="#D63CA0" stop-opacity="0.25"/>
    </linearGradient>
    <filter id="blur" x="-20%" y="-20%" width="140%" height="140%">
      <feGaussianBlur stdDeviation="28"/>
    </filter>
  </defs>
  <rect width="1920" height="1080" fill="url(#bg)"/>
  <circle cx="1480" cy="180" r="230" fill="#F5C842" opacity="0.35" filter="url(#blur)"/>
  <circle cx="330" cy="870" r="280" fill="#D63CA0" opacity="0.18" filter="url(#blur)"/>
  <path d="M0 776C202 698 292 514 490 504C688 494 772 708 980 724C1188 740 1308 530 1532 502C1706 480 1816 560 1920 626V1080H0Z" fill="url(#meshA)" opacity="0.92"/>
  <path d="M0 890C196 824 316 946 494 900C672 854 748 664 934 638C1120 612 1214 764 1418 760C1622 756 1732 648 1920 594V1080H0Z" fill="url(#meshB)" opacity="0.86"/>
  <g fill="none" stroke="#ffffff" stroke-opacity="0.36" stroke-width="3">
    <path d="M196 282L456 172L692 286L848 178L1106 286L1378 140L1660 262"/>
    <path d="M260 688L492 570L706 684L960 590L1180 700L1466 612L1708 734"/>
    <path d="M342 226L346 642L654 358L662 842L944 486L956 910L1264 552L1268 908L1558 730"/>
  </g>
  <g>
    <circle cx="196" cy="282" r="14" fill="#F5C842"/>
    <circle cx="456" cy="172" r="16" fill="#ffffff"/>
    <circle cx="692" cy="286" r="14" fill="#D63CA0"/>
    <circle cx="848" cy="178" r="16" fill="#F5C842"/>
    <circle cx="1106" cy="286" r="14" fill="#ffffff"/>
    <circle cx="1378" cy="140" r="18" fill="#D63CA0"/>
    <circle cx="1660" cy="262" r="16" fill="#F5C842"/>
    <circle cx="260" cy="688" r="16" fill="#ffffff"/>
    <circle cx="492" cy="570" r="14" fill="#F5C842"/>
    <circle cx="706" cy="684" r="14" fill="#D63CA0"/>
    <circle cx="960" cy="590" r="16" fill="#ffffff"/>
    <circle cx="1180" cy="700" r="14" fill="#F5C842"/>
    <circle cx="1466" cy="612" r="18" fill="#D63CA0"/>
    <circle cx="1708" cy="734" r="16" fill="#ffffff"/>
  </g>
  <text x="120" y="160" font-family="'IBM Plex Sans', 'DejaVu Sans', sans-serif" font-size="68" font-weight="700" fill="#241337">Gradient Linux</text>
  <text x="124" y="214" font-family="'IBM Plex Sans', 'DejaVu Sans', sans-serif" font-size="28" fill="#5B00A0">Canvas Edition</text>
  <text x="124" y="258" font-family="'IBM Plex Sans', 'DejaVu Sans', sans-serif" font-size="24" fill="#4f425f">Thin host. Thick tooling. Local-first ML systems.</text>
</svg>
